<?xml version="1.0" encoding="UTF-8"?>
<svg id="Layer_1" data-name="Layer 1" xmlns="http://www.w3.org/2000/svg" version="1.1" viewBox="0 0 24 24">
  <defs>
    <style>
      .cls-1 {
        fill: #fff;
        stroke-width: 0px;
      }
    </style>
  </defs>
  <path class="cls-1" d="M21,22.5c.8,0,1.5-.7,1.5-1.5v-12c0-.8-.7-1.5-1.5-1.5h-4.5V3c0-.8-.7-1.5-1.5-1.5H3c-.8,0-1.5.7-1.5,1.5v12c0,.8.7,1.5,1.5,1.5h4.5v4.5c0,.8.7,1.5,1.5,1.5h12M21,24h-12c-1.7,0-3-1.3-3-3v-3h-3c-1.7,0-3-1.3-3-3V3C0,1.3,1.3,0,3,0h12c1.7,0,3,1.3,3,3v3h3c1.7,0,3,1.3,3,3v12c0,1.7-1.3,3-3,3Z"/>
  <path class="cls-1" d="M9,7.5c-.8,0-1.5.7-1.5,1.5v12c0,.8.7,1.5,1.5,1.5h12c.8,0,1.5-.7,1.5-1.5v-12c0-.8-.7-1.5-1.5-1.5h-12M9,6h12c1.7,0,3,1.3,3,3v12c0,1.7-1.3,3-3,3h-12c-1.7,0-3-1.3-3-3v-12c0-1.7,1.3-3,3-3Z"/>
</svg>