<svg xmlns="http://www.w3.org/2000/svg" xmlns:xlink="http://www.w3.org/1999/xlink" width="24" height="24" viewBox="0 0 24 24"><defs><clipPath id="a"><rect width="23.651" height="24" fill="#f7d857"/></clipPath></defs><g transform="translate(245 -87)"><rect width="24" height="24" transform="translate(-245 87)" fill="none"/><g transform="translate(-244.75 87)"><g clip-path="url(#a)"><path d="M20.561,14.341a1.264,1.264,0,0,1-1.289.087,1.908,1.908,0,0,1-.732-1.758V10.036c0-1.264-.5-2.163-1.338-2.407-1.415-.414-2.472,1.319-2.88,1.971l-2.5,4.051V8.708c-.028-1.14-.4-1.823-1.1-2.027-.463-.136-1.159-.08-1.835.952l-5.6,8.983A9.886,9.886,0,0,1,2.163,12a9.744,9.744,0,0,1,9.656-9.817A9.758,9.758,0,0,1,21.491,12v.056a2.443,2.443,0,0,1-.927,2.287ZM23.651,12v-.053A11.943,11.943,0,0,0,11.819,0,11.936,11.936,0,0,0,0,12,11.926,11.926,0,0,0,11.819,24a11.682,11.682,0,0,0,8.034-3.2,1.1,1.1,0,0,0,.056-1.545,1.06,1.06,0,0,0-1.5-.075l0,0A9.557,9.557,0,0,1,4.9,18.826q-.133-.14-.261-.286l5.037-8.1V14.18c0,1.8.7,2.376,1.279,2.546s1.477.053,2.413-1.468l2.781-4.5c.087-.145.17-.269.244-.377v2.29a4.013,4.013,0,0,0,1.854,3.68,3.4,3.4,0,0,0,3.464-.139A4.6,4.6,0,0,0,23.638,12Z" fill="#f7d857"/></g></g></g></svg>