<svg xmlns="http://www.w3.org/2000/svg" xmlns:xlink="http://www.w3.org/1999/xlink" width="24" height="24" viewBox="0 0 24 24"><defs><clipPath id="a"><rect width="20.403" height="24" fill="none"/></clipPath></defs><g transform="translate(106 -94)"><rect width="24" height="24" transform="translate(-106 94)" fill="none"/><g transform="translate(-104.2 94)"><g transform="translate(0 0)" clip-path="url(#a)"><path d="M14.34,5.389H6.25a.75.75,0,0,1-.75-.75V1.593A1.6,1.6,0,0,1,7.092,0H13.5A1.6,1.6,0,0,1,15.09,1.593V4.639A.75.75,0,0,1,14.34,5.389ZM7,3.889h6.59v-2.3A.093.093,0,0,0,13.5,1.5H7.092A.093.093,0,0,0,7,1.593Z" transform="translate(-0.093 -0.011)" fill="#2d2824"/><path d="M15.124,24.131H5.368a3.154,3.154,0,0,1-3.151-3.15V8.043a.75.75,0,0,1,1.5,0V20.981a1.652,1.652,0,0,0,1.651,1.65h9.756a1.652,1.652,0,0,0,1.65-1.65V8.043a.75.75,0,0,1,1.5,0V20.981A3.153,3.153,0,0,1,15.124,24.131Z" transform="translate(-0.044 -0.12)" fill="#2d2824"/><path d="M18.926.75H0A.75.75,0,0,1-.75,0,.75.75,0,0,1,0-.75H18.926a.75.75,0,0,1,.75.75A.75.75,0,0,1,18.926.75Z" transform="translate(0.739 4.627)" fill="#2d2824"/><path d="M0,8.971a.75.75,0,0,1-.75-.75V0A.75.75,0,0,1,0-.75.75.75,0,0,1,.75,0V8.221A.75.75,0,0,1,0,8.971Z" transform="translate(8.381 9.667)" fill="#2d2824"/><path d="M0,8.971a.75.75,0,0,1-.75-.75V0A.75.75,0,0,1,0-.75.75.75,0,0,1,.75,0V8.221A.75.75,0,0,1,0,8.971Z" transform="translate(12.022 9.667)" fill="#2d2824"/></g></g></g></svg>