<?xml version="1.0" encoding="UTF-8"?>
<svg xmlns="http://www.w3.org/2000/svg" version="1.1" xmlns:xlink="http://www.w3.org/1999/xlink" viewBox="0 0 24 24">
  <defs>
    <style>
      .cls-1 {
        fill: none;
      }

      .cls-2 {
        fill: #f7d857;
        fill-rule: evenodd;
      }

      .cls-3 {
        clip-path: url(#clippath);
      }
    </style>
    <clipPath id="clippath">
      <rect class="cls-1" width="24" height="24"/>
    </clipPath>
  </defs>
  <!-- Generator: Adobe Illustrator 28.6.0, SVG Export Plug-In . SVG Version: 1.2.0 Build 709)  -->
  <g>
    <g id="Layer_1">
      <g class="cls-3">
        <g>
          <path class="cls-2" d="M14.2,8.6c.9-.5,1.8-1,2.6-1.6.2.3.2.7.1,1.1,0,.2-.2.4-.4.5-.2.2-.4.3-.7.3-.6.1-1.1,0-1.6-.3M14.3,12.3l1,.6c-2,1.1-2.5,3.2-3.2,5.2-.6-2-1.2-4.1-3.2-5.2l1-.6c.2,0,.3-.3.3-.5,0-1.9.4-2.7,1.1-3.2.5-.4,1.1-.4,1.6,0,.7.5,1.2,1.4,1.1,3.2,0,.2.1.4.3.5ZM12.1,0c1.1,0,2.2.2,3.2.7.7.3,1.3.7,1.9,1.1.2.2.5.4.7.6.8,0,1.5-.6,2-1.3-.7,2.4-4.1,5.3-6.4,6.4h0c-.8-.6-1.9-.6-2.7,0h0c-2.3-1.1-5.7-4-6.4-6.4.4.7,1.2,1.2,2,1.3.2-.2.5-.4.7-.6.6-.5,1.2-.8,1.9-1.1,1-.4,2.1-.7,3.2-.7M10,8.6c-.9-.5-1.8-1-2.6-1.6-.2.3-.2.7,0,1.1,0,.2.2.4.4.5.2.2.4.3.7.3.6.1,1.1,0,1.6-.3"/>
          <path class="cls-2" d="M17.8,6c.5-.5.9-1,1.3-1.6l.2.3c.6,1.2.9,2.4.9,3.7v3.2c0,2.8.7,5.5,2,7.9l-2.8-2.2-2,3.2-2.1-1.9-3.3,5.3-3.3-5.3-2.1,1.9-2-3.2-2.8,2.2c1.3-2.5,1.9-5.2,2-7.9v-3.2c0-1.3.3-2.6.9-3.7l.2-.3c.4.6.8,1.1,1.3,1.6l-.2.3c-.3.6-.4,1.4-.2,2.1.2.4.4.8.8,1.1s.8.5,1.2.6h.9c0,.4-.1.8,0,1.2l-2.6,1.5,2,1.1c.2,0,.3.2.5.3,1.7,1.5,2.7,5.9,3.4,8.1.7-2.2,1.7-6.6,3.4-8.1.1-.1.3-.2.5-.3l2-1.1-2.6-1.5c0-.4,0-.8-.1-1.2h.9c.4,0,.9-.3,1.2-.6.4-.3.7-.7.8-1.1.2-.7.2-1.4-.2-2.1l-.2-.3s.1,0,.1,0Z"/>
        </g>
      </g>
    </g>
  </g>
</svg>