<?xml version="1.0" encoding="UTF-8"?>
<svg xmlns="http://www.w3.org/2000/svg" version="1.1" viewBox="0 0 28 28">
  <defs>
    <style>
      .cls-1 {
        fill: none;
      }

      .cls-2 {
        fill: #f7d857;
        fill-rule: evenodd;
      }
    </style>
  </defs>
  <!-- Generator: Adobe Illustrator 28.6.0, SVG Export Plug-In . SVG Version: 1.2.0 Build 709)  -->
  <g>
    <g id="Layer_1">
      <path class="cls-2" d="M7.6,3.2s4,2.1,4.1,2.1c.4,0,.7-.3,1-.5l.9-.5,1,.5,1,.5s4.5-1.9,4.4-2-.9-.5-3.4-1.8c-1.2-.6-2.3-1.2-2.5-1.3C14,.2,13.8,0,13.6,0,13.6,0,7.6,3.2,7.6,3.2ZM1.5,6.3v7.8s.9-.4,1.9-.8l1.8-.8v-4.2l.9.5c.7.4,1.4.8,2.1,1.1l1.2.6.5-.2c.3-.2.7-.3,1-.5.3-.1.9-.4,1.4-.6.4-.1.7-.3,1-.5,0,0-1-.7-4-2.2-2.3-1.2-4.2-2.1-4.3-2.1-.6.3-3.5,1.9-3.5,1.9ZM18.1,6.6s.6.4,1.4.9c.5.3,1,.5,1.4.9-.5.3-1,.5-1.6.8l-4.8,2.2-6,2.7-3,1.4c-3.1,1.4-3.9,1.8-4,1.8s-.1.5-.2,2.4v2.3l1.5.8,1.6.8,2.2-1c1.2-.5,2.2-1,2.2-1-.1-.1-.3-.2-.5-.3-.3-.1-.8-.5-1.2-.7-.3-.2-.6-.3-.9-.5,0,0-.2,0-.2-.1s.9-.5,2.1-1c2.2-1,4-1.8,7.7-3.4l5-2.2c1.5-.7,3.1-1.4,3.7-1.7l1.1-.5v-4.6l-1.6-.8c-.9-.4-1.6-.8-1.6-.8,0,0-4.3,1.6-4.3,1.6ZM22.1,15.6v2.1c0,.7,0,1.4-.1,2,0,0-1.6-.8-3.1-1.6-.7-.4-1.2-.6-1.4-.5-.1,0-3.6,1.7-3.6,1.7,0,0,1.8,1,4.1,2.2l4.2,2.2,1.8-.9c.6-.3,1.3-.7,1.9-1v-7.8c-.2,0-3.8,1.6-3.8,1.6ZM15.4,23.1l-.9.4c-.9.4-.7.4-1.9-.1-.7-.4-1.1-.5-1.2-.4-.1,0-1,.4-2,.9s-1.8.8-1.9.8c-.4,0,.3.4,2.9,1.8l3.1,1.6,1.3-.6c.7-.4,2.2-1.1,3.2-1.6s1.9-1,1.9-1c0,0-.9-.5-2-1l-1.9-1-.7.3h0Z"/>
      <rect class="cls-1" width="28" height="28"/>
    </g>
  </g>
</svg>