<svg xmlns="http://www.w3.org/2000/svg" xmlns:xlink="http://www.w3.org/1999/xlink" width="24" height="24" viewBox="0 0 24 24"><defs><clipPath id="a"><rect width="21.5" height="23.939" transform="translate(0 0)" fill="none"/></clipPath></defs><g transform="translate(190 -178)"><rect width="24" height="24" transform="translate(-190 178)" fill="none"/><g transform="translate(-188.75 178)"><g clip-path="url(#a)"><path d="M10.75,23.939a.748.748,0,0,1-.53-.22L6.678,20.178a.75.75,0,0,1,1.061-1.061l3.011,3.011,3.012-3.011a.75.75,0,0,1,1.061,1.061L11.28,23.719A.748.748,0,0,1,10.75,23.939Z" fill="#2d2824"/><path d="M0,8.82a.75.75,0,0,1-.75-.75V0A.75.75,0,0,1,0-.75.75.75,0,0,1,.75,0V8.07A.75.75,0,0,1,0,8.82Z" transform="translate(10.75 15.119)" fill="#2d2824"/><path d="M0-.75H20a.75.75,0,0,1,.75.75V3a.75.75,0,0,1-.75.75H0A.75.75,0,0,1-.75,3V0A.75.75,0,0,1,0-.75ZM19.25.75H.75v1.5h18.5Z" transform="translate(0.75 0.75)" fill="#2d2824"/><path d="M0-.75H20a.75.75,0,0,1,.75.75V3a.75.75,0,0,1-.75.75H0A.75.75,0,0,1-.75,3V0A.75.75,0,0,1,0-.75ZM19.25.75H.75v1.5h18.5Z" transform="translate(0.75 8.853)" fill="#2d2824"/></g></g></g></svg>