<?xml version="1.0" encoding="UTF-8"?>
<svg xmlns="http://www.w3.org/2000/svg" version="1.1" xmlns:xlink="http://www.w3.org/1999/xlink" viewBox="0 0 28 28">
  <defs>
    <style>
      .cls-1 {
        fill: none;
      }

      .cls-2 {
        fill: #f7d857;
      }

      .cls-3 {
        clip-path: url(#clippath);
      }
    </style>
    <clipPath id="clippath">
      <rect class="cls-1" width="28" height="28"/>
    </clipPath>
  </defs>
  <!-- Generator: Adobe Illustrator 28.6.0, SVG Export Plug-In . SVG Version: 1.2.0 Build 709)  -->
  <g>
    <g id="Layer_1">
      <g class="cls-3">
        <g>
          <path class="cls-2" d="M5.8,13.3c0-.7.5-1.2,1.2-1.2h2c.7,0,1.2.5,1.2,1.2h0v7.5c.2,0,.5-.1.8-.2.4-.1.8-.5.8-1v-9.3c0-.7.5-1.2,1.2-1.2h2c.7,0,1.2.5,1.2,1.2v8.6s.5-.2,1-.4c.4-.2.6-.5.6-.9V7.4c0-.7.5-1.2,1.2-1.2h2c.7,0,1.2.5,1.2,1.2h0v8.5c1.8-1.3,3.5-2.8,4.8-4.6.4-.5.5-1.2.3-1.9C24.7,2.1,16.7-1.7,9.4.8,2.1,3.4-1.8,11.3.8,18.6c.3.8.6,1.6,1.1,2.4.3.6,1,.9,1.7.9s.8,0,1.4-.1c.5,0,.9-.5.9-1v-7.4"/>
          <path class="cls-2" d="M5.8,25.3c6.2,4.5,15,3.2,19.5-3.1,1.7-2.4,2.7-5.3,2.7-8.2v-1c-5.1,7.6-14.5,11.2-22.2,12.3"/>
        </g>
      </g>
    </g>
  </g>
</svg>