<svg xmlns="http://www.w3.org/2000/svg" xmlns:xlink="http://www.w3.org/1999/xlink" width="24.508" height="24.508" viewBox="0 0 24.508 24.508"><defs><clipPath id="a"><rect width="24.508" height="24.508" transform="translate(0 0)" fill="none"/></clipPath></defs><g transform="translate(0 0)"><g clip-path="url(#a)"><path d="M23.758,6.508a.75.75,0,0,1-.75-.75V1.5H18.75a.75.75,0,0,1,0-1.5h5.008a.75.75,0,0,1,.75.75V5.758A.75.75,0,0,1,23.758,6.508Z" fill="#ffffff"/><path d="M0,9.061a.748.748,0,0,1-.53-.22.75.75,0,0,1,0-1.061L7.781-.53a.75.75,0,0,1,1.061,0,.75.75,0,0,1,0,1.061L.53,8.841A.748.748,0,0,1,0,9.061Z" transform="translate(15.447 0.75)" fill="#ffffff"/><path d="M21.266,24.508H3.241A3.245,3.245,0,0,1,0,21.267V3.242A3.245,3.245,0,0,1,3.241,0h10.93a.75.75,0,0,1,0,1.5H3.241A1.743,1.743,0,0,0,1.5,3.242V21.267a1.743,1.743,0,0,0,1.741,1.741H21.266a1.743,1.743,0,0,0,1.742-1.741V10.337a.75.75,0,0,1,1.5,0v10.93A3.245,3.245,0,0,1,21.266,24.508Z" fill="#ffffff"/></g></g></svg>