<?xml version="1.0" encoding="UTF-8"?>
<svg xmlns="http://www.w3.org/2000/svg" version="1.1" xmlns:xlink="http://www.w3.org/1999/xlink" viewBox="0 0 24 24">
  <defs>
    <style>
      .cls-1 {
        fill: none;
      }

      .cls-2 {
        fill: #f7d857;
      }

      .cls-3 {
        clip-path: url(#clippath);
      }
    </style>
    <clipPath id="clippath">
      <rect class="cls-1" width="24" height="24"/>
    </clipPath>
  </defs>
  <!-- Generator: Adobe Illustrator 28.7.0, SVG Export Plug-In . SVG Version: 1.2.0 Build 136)  -->
  <g>
    <g id="Layer_1">
      <g id="Layer_1-2" data-name="Layer_1">
        <g class="cls-3">
          <g>
            <path class="cls-2" d="M12,0C5.4,0,0,5.3,0,12s5.3,12,12,12,12-5.3,12-12h0C24,5.3,18.6,0,12,0M10.5,11.4c-1.2,0-2.2-.9-2.2-2.1s.9-2.2,2.1-2.2,2.2.9,2.2,2.1h0c0,1.2-.9,2.1-2.1,2.1M12.2,13.7h0c.6.4,1.3.6,2,.6s1.4,0,2.1-.2c.7-.1,1.4-.4,2-.6.4-.2.7-.3,1.1-.5h0c.2-.1.4-.3.6-.4h.1c-.5.4-1.2.8-1.8,1.1-.7.3-1.3.6-2,.8-.7.2-1.4.3-2.2.3s-1.5-.3-2-.9h0v-.2ZM17.7,11.4c0-.3.2-.5.5-.5s.5.2.5.5-.2.5-.5.5-.5-.2-.5-.5M14,22.9c-.5-3.2,2.4-6.4,3.9-8.1l1.4-1.4c2.1-1.9,2.5-4.3-1.7-5.4-.8-.2-1.6-.6-2.5-.9v-.2c-.1-.2-.3-.4-.5-.6-.7-.4-1.6-.5-2.5-.3-.9-.3-1.9-.3-2.9,0-4.1,1.1-4.7,3.1-4.9,5.6,0,2.3-.5,4.6-1.3,6.8C-.5,13.3.7,6.4,5.7,2.9c5-3.5,11.9-2.3,15.4,2.7,1.3,1.9,2,4.1,2,6.4,0,5.4-3.8,10-9.1,11h0Z"/>
            <path class="cls-2" d="M12,9.3c0,.8-.7,1.5-1.5,1.5s-1.5-.7-1.5-1.5.7-1.5,1.5-1.5,1.5.7,1.5,1.5h0"/>
          </g>
        </g>
      </g>
    </g>
  </g>
</svg>