<svg xmlns="http://www.w3.org/2000/svg" xmlns:xlink="http://www.w3.org/1999/xlink" width="24" height="24" viewBox="0 0 24 24"><defs><clipPath id="a"><rect width="22.444" height="20.543" transform="translate(0 -0.001)" fill="none"/></clipPath></defs><g transform="translate(-166 -112) rotate(-90)"><rect width="24" height="24" transform="translate(-136 166)" fill="none"/><g transform="translate(-135.25 167.751)"><g clip-path="url(#a)"><path d="M15.772,7.5H6.558a1.584,1.584,0,0,1-1.22-.572l-3.6-4.322A1.573,1.573,0,0,1,1.517.916,1.574,1.574,0,0,1,2.956,0H19.374a1.574,1.574,0,0,1,1.439.916,1.574,1.574,0,0,1-.219,1.691l-3.6,4.321A1.589,1.589,0,0,1,15.772,7.5ZM2.956,1.5a.089.089,0,0,0-.068.145l3.6,4.323A.088.088,0,0,0,6.558,6h9.214a.092.092,0,0,0,.07-.034l3.6-4.32a.089.089,0,0,0-.068-.146Z" fill="#2d2824"/><path d="M4.5.75H0A.75.75,0,0,1-.75,0,.75.75,0,0,1,0-.75H4.5A.75.75,0,0,1,5.25,0,.75.75,0,0,1,4.5.75Z" transform="translate(17.194 10.271)" fill="#2d2824"/><path d="M8.361.75H1.2A.75.75,0,0,1,.445,0,.75.75,0,0,1,1.2-.75H8.361a.75.75,0,0,1,.75.75A.75.75,0,0,1,8.361.75Z" transform="translate(6.444 10.271)" fill="#2d2824"/><path d="M4.5.75H0A.75.75,0,0,1-.75,0,.75.75,0,0,1,0-.75H4.5A.75.75,0,0,1,5.25,0,.75.75,0,0,1,4.5.75Z" transform="translate(0.75 10.271)" fill="#2d2824"/><path d="M6.558,13.042h9.214a1.588,1.588,0,0,1,1.22.57l3.6,4.324a1.589,1.589,0,0,1-1.22,2.606H2.956a1.589,1.589,0,0,1-1.22-2.607l3.6-4.321A1.583,1.583,0,0,1,6.558,13.042Zm12.816,6a.089.089,0,0,0,.068-.145l-3.6-4.323a.091.091,0,0,0-.069-.032H6.558a.088.088,0,0,0-.068.032L2.888,18.9a.089.089,0,0,0,.068.146Z" fill="#2d2824"/></g></g></g></svg>