<svg xmlns="http://www.w3.org/2000/svg" xmlns:xlink="http://www.w3.org/1999/xlink" width="24" height="24" viewBox="0 0 24 24"><defs><clipPath id="a"><rect width="24" height="24" transform="translate(-238 77)" fill="#fff" stroke="#707070" stroke-width="1"/></clipPath><clipPath id="b"><rect width="21.427" height="24" fill="none"/></clipPath></defs><g transform="translate(238 -77)" clip-path="url(#a)"><g transform="translate(-236.7 77)"><g clip-path="url(#b)"><path d="M21.271.349c.021-.038.166,11.788.155,17.76a9.162,9.162,0,0,1-.509,3.673A3.532,3.532,0,0,1,17.978,24a3.571,3.571,0,0,1-3.208-2.187,9.232,9.232,0,0,1-.562-3.88L14.22,6.095A3.874,3.874,0,0,1,12.8,7.242a4.18,4.18,0,0,1-3.648-.034A3.842,3.842,0,0,1,7.758,6.035a28.355,28.355,0,0,1-.174,4.47A5.222,5.222,0,0,1,5.129,14.14a3.634,3.634,0,0,1-4.322-.531A4.953,4.953,0,0,1,0,10.2C.042,6.892.082,3.568.05.365A158.646,158.646,0,0,1,21.271.349" fill="#f7d857"/></g></g></g></svg>