<svg xmlns="http://www.w3.org/2000/svg" xmlns:xlink="http://www.w3.org/1999/xlink" width="24" height="24" viewBox="0 0 24 24"><defs><clipPath id="a"><rect width="20.787" height="24" fill="none"/></clipPath></defs><g transform="translate(7700 15053)"><rect width="24" height="24" transform="translate(-7700 -15053)" fill="none"/><g transform="translate(-7698.4 -15053)"><g transform="translate(0 0)" clip-path="url(#a)"><path d="M19.7,9.007v8.369l-9.308,5.373L1.08,17.376V6.624l9.314-5.379,7.154,4.133,1.08-.624L10.393,0,0,6V18l10.393,6,10.393-6V8.385L19.7,9.007" transform="translate(0 0)" fill="#f7d857"/><path d="M11.148,21.08H9.59V15.858h5.191a1.869,1.869,0,0,0,1.71-2.572,1.777,1.777,0,0,0-.407-.6,1.8,1.8,0,0,0-1.3-.545H9.59V10.557h5.2a3.457,3.457,0,0,1,3.437,3.437,3.335,3.335,0,0,1-.607,1.947,3.39,3.39,0,0,1-1.5,1.225,6.009,6.009,0,0,1-1.858.281H11.148V21.08" transform="translate(-3.361 -3.699)" fill="#f7d857"/><path d="M21.089,25.059H19.272l-1.4-2.445a5.916,5.916,0,0,0,1.625-.332Z" transform="translate(-6.262 -7.808)" fill="#f7d857"/><path d="M28.66,10.172l1.074.6,1.074-.6V8.911l-1.074-.624-1.075.624v1.261Z" transform="translate(-10.043 -2.904)" fill="#f7d857"/></g></g></g></svg>