<svg xmlns="http://www.w3.org/2000/svg" width="24" height="24" viewBox="0 0 24 24"><g transform="translate(131 -200)"><rect width="24" height="24" transform="translate(-131 200)" fill="none"/><g transform="translate(-129.765 200.162)"><g transform="translate(0.686 0.686)"><path d="M19.954,6.013H15.442a.75.75,0,0,1,0-1.5H19.2V.75a.75.75,0,0,1,1.5,0V5.263A.75.75,0,0,1,19.954,6.013Z" transform="translate(-2.203 -0.75)" fill="#2d2824"/><path d="M.75,12.708a.75.75,0,0,1-.75-.75A10.83,10.83,0,0,1,18.487,4.3a.75.75,0,0,1-1.061,1.061A9.329,9.329,0,0,0,1.5,11.958.75.75,0,0,1,.75,12.708Z" transform="translate(-0.75 -0.862)" fill="#2d2824"/><path d="M19.954,6.013H15.442a.75.75,0,0,1,0-1.5H19.2V.75a.75.75,0,0,1,1.5,0V5.263A.75.75,0,0,1,19.954,6.013Z" transform="translate(-2.203 -0.75)" fill="#2d2824"/><path d="M3.422,25.758a.75.75,0,0,1-.75-.75V20.5a.75.75,0,0,1,.75-.75H7.935a.75.75,0,0,1,0,1.5H4.172v3.763A.75.75,0,0,1,3.422,25.758Z" transform="translate(-1.014 -2.703)" fill="#2d2824"/><path d="M11.153,24.018A10.76,10.76,0,0,1,3.5,20.847a.75.75,0,0,1,1.061-1.061,9.329,9.329,0,0,0,15.927-6.6.75.75,0,1,1,1.5,0A10.828,10.828,0,0,1,11.153,24.018Z" transform="translate(-1.074 -1.981)" fill="#2d2824"/><path d="M3.422,25.758a.75.75,0,0,1-.75-.75V20.5a.75.75,0,0,1,.75-.75H7.935a.75.75,0,0,1,0,1.5H4.172v3.763A.75.75,0,0,1,3.422,25.758Z" transform="translate(-1.014 -2.703)" fill="#2d2824"/></g></g></g></svg>