<svg xmlns="http://www.w3.org/2000/svg" xmlns:xlink="http://www.w3.org/1999/xlink" width="24" height="24" viewBox="0 0 24 24"><defs><clipPath id="a"><rect width="24" height="24" fill="none"/></clipPath></defs><g transform="translate(0 0)"><g transform="translate(0 0)" clip-path="url(#a)"><path d="M.75,6.4A.75.75,0,0,1,0,5.654V.75A.75.75,0,0,1,.75,0h4.9a.75.75,0,1,1,0,1.5H1.5V5.654A.75.75,0,0,1,.75,6.4Z" transform="translate(-0.016 -0.016)" fill="#2d2824"/><path d="M23.654,24.4h-4.9a.75.75,0,1,1,0-1.5H22.9V18.75a.75.75,0,0,1,1.5,0v4.9A.75.75,0,0,1,23.654,24.4Z" transform="translate(-0.389 -0.389)" fill="#2d2824"/><path d="M22.531,23.281a.748.748,0,0,1-.53-.22L-.53.53A.75.75,0,0,1-.53-.53.75.75,0,0,1,.53-.53L23.061,22a.75.75,0,0,1-.53,1.28Z" transform="translate(0.735 0.734)" fill="#2d2824"/><path d="M23.48,14.643a.75.75,0,0,1-.75-.75V2.669A1.171,1.171,0,0,0,21.56,1.5H10.337a.75.75,0,0,1,0-1.5H21.56A2.672,2.672,0,0,1,24.23,2.669V13.893A.75.75,0,0,1,23.48,14.643Z" transform="translate(-0.214 -0.016)" fill="#2d2824"/><path d="M13.893,24.23H2.669A2.672,2.672,0,0,1,0,21.56V10.337a.75.75,0,0,1,1.5,0V21.56A1.171,1.171,0,0,0,2.669,22.73H13.893a.75.75,0,0,1,0,1.5Z" transform="translate(-0.016 -0.214)" fill="#2d2824"/></g></g></svg>