<?xml version="1.0" encoding="UTF-8"?>
<svg xmlns="http://www.w3.org/2000/svg" version="1.1" xmlns:xlink="http://www.w3.org/1999/xlink" viewBox="0 0 24 24">
  <defs>
    <style>
      .cls-1 {
        fill: none;
      }

      .cls-2 {
        clip-path: url(#clippath-1);
      }

      .cls-3 {
        fill: #f7d857;
      }

      .cls-4 {
        clip-path: url(#clippath);
      }
    </style>
    <clipPath id="clippath">
      <rect class="cls-1" width="24" height="24"/>
    </clipPath>
    <clipPath id="clippath-1">
      <rect class="cls-1" width="24" height="24"/>
    </clipPath>
  </defs>
  <!-- Generator: Adobe Illustrator 28.6.0, SVG Export Plug-In . SVG Version: 1.2.0 Build 709)  -->
  <g>
    <g id="Layer_1">
      <g class="cls-4">
        <g class="cls-2">
          <g>
            <path class="cls-3" d="M12,7.3c2.6,0,4.7,2.2,4.7,4.8s-2.2,4.7-4.8,4.7-4.7-2.1-4.7-4.7,2.1-4.7,4.7-4.7h0"/>
            <path class="cls-3" d="M18.2,22.1c-4.1,3.3-11.5,2.1-15.3-2.3C-1.4,14.7-.9,7.2,4.2,2.9c4.8-4.1,12-3.8,16.4.8,4.4,4.5,4.6,11.9.5,16.1l-2.9-3c2.7-3.4,2.1-8.3-1.3-10.9-3.4-2.7-8.3-2.1-10.9,1.3-2.7,3.4-2.1,8.3,1.3,10.9,2,1.6,4.5,2.1,6.9,1.4.6-.3,1.4,0,1.8.5.7.8,1.5,1.5,2.2,2.2"/>
          </g>
        </g>
      </g>
    </g>
  </g>
</svg>