<?xml version="1.0" encoding="UTF-8"?>
<svg xmlns="http://www.w3.org/2000/svg" version="1.1" viewBox="0 0 24 24">
  <defs>
    <style>
      .cls-1 {
        fill: #f7d857;
      }
    </style>
  </defs>
  <!-- Generator: Adobe Illustrator 28.7.0, SVG Export Plug-In . SVG Version: 1.2.0 Build 136)  -->
  <g>
    <g id="Layer_1">
      <path class="cls-1" d="M19.8,5.1c-.2,0-.3-.2-.5-.3-.4-.3-.9-.6-1.2-1-.9-1-1.2-2.1-1.4-2.8h0c-.1-.6,0-1,0-1h-4.1v15.9c0,.2,0,.4,0,.6,0,0,0,0,0,0,0,0,0,0,0,0h0c0,1.2-.7,2.2-1.8,2.8-.5.3-1.1.5-1.7.4-1.9,0-3.5-1.6-3.5-3.5s1.6-3.5,3.5-3.5c.4,0,.7,0,1.1.2v-4.2c-2.1-.3-4.3.4-5.9,1.7-.7.6-1.3,1.4-1.8,2.2-.2.3-.8,1.5-.9,3.5,0,1.1.3,2.3.4,2.7h0c0,.3.5,1.2,1.1,2.1.5.6,1.1,1.2,1.8,1.7h0s0,0,0,0c2,1.4,4.2,1.3,4.2,1.3.4,0,1.7,0,3.1-.7,1.6-.8,2.5-1.9,2.5-1.9.6-.7,1.1-1.5,1.4-2.3.4-1,.5-2.2.5-2.6v-8.5s.7.5.7.5c0,0,1,.6,2.5,1,1.1.3,2.5.3,2.5.3v-4.1c-.5,0-1.5-.1-2.6-.6Z"/>
    </g>
  </g>
</svg>