<svg xmlns="http://www.w3.org/2000/svg" xmlns:xlink="http://www.w3.org/1999/xlink" width="24" height="24" viewBox="0 0 24 24"><defs><clipPath id="a"><rect width="21.5" height="23.939" fill="none"/></clipPath></defs><rect width="24" height="24" fill="none"/><g transform="translate(1.25 0.061)"><g clip-path="url(#a)"><path d="M14.292,23.939a.748.748,0,0,1-.53-.22L10.75,20.708,7.739,23.719a.75.75,0,0,1-1.061-1.061l3.541-3.541a.75.75,0,0,1,1.061,0l3.542,3.541a.75.75,0,0,1-.53,1.28Z" transform="translate(0 -18.897)" fill="#2d2824"/><path d="M0,8.82a.75.75,0,0,1-.75-.75V0A.75.75,0,0,1,0-.75.75.75,0,0,1,.75,0V8.07A.75.75,0,0,1,0,8.82Z" transform="translate(10.75 0.75)" fill="#2d2824"/><path d="M0-.75H20a.75.75,0,0,1,.75.75V3a.75.75,0,0,1-.75.75H0A.75.75,0,0,1-.75,3V0A.75.75,0,0,1,0-.75ZM19.25.75H.75v1.5h18.5Z" transform="translate(0.75 20.189)" fill="#2d2824"/><path d="M0-.75H20a.75.75,0,0,1,.75.75V3a.75.75,0,0,1-.75.75H0A.75.75,0,0,1-.75,3V0A.75.75,0,0,1,0-.75ZM19.25.75H.75v1.5h18.5Z" transform="translate(0.75 12.086)" fill="#2d2824"/></g></g></svg>